{
  "accessors": [
    {
      "bufferView": 1,
      "componentType": 5126,
      "count": 18609,
      "max": [
        0.8908140063285828,
        0.18779799342155457,
        1.9999990463256836
      ],
      "min": [
        -0.8908140063285828,
        -0.1805109977722168,
        -0.006940000224858522
      ],
      "type": "VEC3"
    },
    {
      "bufferView": 1,
      "byteOffset": 223308,
      "componentType": 5126,
      "count": 18609,
      "max": [
        1.0,
        0.9999992847442627,
        0.9999831914901733
      ],
      "min": [
        -1.0,
        -0.9999946355819702,
        -0.9999823570251465
      ],
      "type": "VEC3"
    },
    {
      "bufferView": 0,
      "componentType": 5125,
      "count": 111264,
      "type": "SCALAR"
    }
  ],
  "asset": {
    "extras": {
      "author": "Drazen (https://sketchfab.com/drazenk)",
      "license": "CC-BY-SA-4.0 (http://creativecommons.org/licenses/by-sa/4.0/)",
      "source": "https://sketchfab.com/3d-models/female-base-mesh-b6389ae82f044dbe9945c4dad2cd72ae",
      "title": "Female base mesh"
    },
    "generator": "Sketchfab-12.68.0",
    "version": "2.0"
  },
  "bufferViews": [
    {
      "buffer": 0,
      "byteLength": 445056,
      "name": "floatBufferViews",
      "target": 34963
    },
    {
      "buffer": 0,
      "byteLength": 446616,
      "byteOffset": 445056,
      "byteStride": 12,
      "name": "floatBufferViews",
      "target": 34962
    }
  ],
  "buffers": [
    {
      "byteLength": 891672,
      "uri": "scene.bin"
    }
  ],
  "materials": [
    {
      "doubleSided": true,
      "name": "material_0",
      "pbrMetallicRoughness": {
        "baseColorFactor": [
          0.17446236145536798,
          0.18525936773129745,
          0.18525936773129745,
          1.0
        ],
        "metallicFactor": 0.0,
        "roughnessFactor": 0.6
      }
    }
  ],
  "meshes": [
    {
      "name": "Object_0",
      "primitives": [
        {
          "attributes": {
            "NORMAL": 1,
            "POSITION": 0
          },
          "indices": 2,
          "material": 0,
          "mode": 4
        }
      ]
    }
  ],
  "nodes": [
    {
      "children": [
        1
      ],
      "matrix": [
        1.0,
        0.0,
        0.0,
        0.0,
        0.0,
        2.220446049250313e-16,
        -1.0,
        0.0,
        0.0,
        1.0,
        2.220446049250313e-16,
        0.0,
        0.0,
        0.0,
        0.0,
        1.0
      ],
      "name": "Sketchfab_model"
    },
    {
      "children": [
        2
      ],
      "name": "Female base.obj.cleaner.materialmerger.gles"
    },
    {
      "mesh": 0,
      "name": "Object_2"
    }
  ],
  "scene": 0,
  "scenes": [
    {
      "name": "Sketchfab_Scene",
      "nodes": [
        0
      ]
    }
  ]
}
